<?xml version="1.0" standalone="no"?>
<!DOCTYPE svg PUBLIC "-//W3C//DTD SVG 20010904//EN"
 "http://www.w3.org/TR/2001/REC-SVG-20010904/DTD/svg10.dtd">
<svg version="1.0" xmlns="http://www.w3.org/2000/svg"
 width="300.000000pt" height="181.000000pt" viewBox="0 0 300.000000 181.000000"
 preserveAspectRatio="xMidYMid meet">

<g transform="translate(0.000000,181.000000) scale(0.100000,-0.100000)"
fill="#000000" stroke="none">
<path d="M2058 1508 c-96 -123 -226 -294 -288 -380 -63 -87 -117 -157 -120
-157 -3 0 -63 83 -135 184 -114 162 -133 184 -157 185 -16 0 -28 -3 -28 -6 0
-3 63 -94 141 -201 77 -108 141 -199 142 -203 1 -4 -67 -102 -150 -218 -84
-115 -153 -212 -153 -216 0 -3 12 -6 28 -6 24 1 44 25 167 195 77 107 143 195
146 195 3 0 68 -88 145 -195 124 -173 142 -194 168 -195 20 0 27 4 23 14 -3 8
-71 104 -151 215 -80 111 -146 204 -146 207 0 5 328 484 508 742 83 119 32 61
-140 -160z"/>
<path d="M0 915 l0 -425 25 0 25 0 0 385 c0 212 3 385 8 385 4 -1 120 -166
257 -368 219 -321 549 -779 593 -822 8 -8 -178 274 -414 627 -419 628 -430
642 -461 643 l-33 0 0 -425z"/>
<path d="M710 915 l0 -425 285 0 285 0 0 25 0 25 -260 0 -260 0 0 185 0 185
240 0 c233 0 240 1 240 20 0 19 -7 20 -240 20 l-240 0 0 170 0 170 255 0 255
0 0 25 0 25 -280 0 -280 0 0 -425z"/>
<path d="M2020 1315 l0 -25 150 0 150 0 0 -400 0 -400 25 0 25 0 0 400 0 400
151 0 c150 0 150 0 147 23 l-3 22 -322 3 -323 2 0 -25z"/>
<path d="M2797 733 c-4 -3 -7 -39 -7 -80 0 -66 -2 -73 -19 -73 -11 0 -23 5
-26 10 -8 13 -35 13 -35 1 0 -19 32 -41 59 -41 43 0 51 16 51 107 0 76 -5 94
-23 76z"/>
<path d="M2888 728 c-41 -34 -21 -81 42 -98 44 -12 52 -33 20 -50 -16 -8 -27
-7 -50 7 -37 21 -53 8 -21 -18 49 -40 127 -12 119 42 -3 22 -20 34 -80 58 -19
7 -26 15 -22 26 7 17 55 20 71 4 6 -6 17 -9 24 -7 9 3 6 11 -9 26 -24 24 -70
29 -94 10z"/>
<path d="M2644 579 c-10 -17 13 -36 27 -22 12 12 4 33 -11 33 -5 0 -12 -5 -16
-11z"/>
</g>
</svg>
